<svg xmlns="http://www.w3.org/2000/svg" height="800" width="1200" xml:space="preserve" y="0" x="0" id="Layer_1" version="1.1" viewBox="-106.29675 -25.35 921.2385 152.1"><style id="style14551" type="text/css">.st0{fill:#54565a}</style><path id="path14553" d="M629 101.4V73.8c0-17.2-8.5-22-33-22h-48.2v49.6h30.4V67.8h8.1c9 0 12.2 5.3 12.2 11v22.6zm-87-33.2v-2c0-8.2-4.7-14.4-25.9-14.4h-31.2c-19.7 0-27.9 6.7-27.9 21.4v8.7c0 12.4 8.2 19.5 25.6 19.5h55.6V86.8h-44.9c-4.4 0-6-1.4-6-4.7v-.5h34.9c12.4.1 19.8-4.1 19.8-13.4zm-28.8 1.2c0 2.2-.9 3.5-4.4 3.5h-21.4V71c0-2.8 1.1-4.7 4.6-4.7h16.6c2.7-.1 4.6.9 4.6 3.1zm-78.4-2.7h19v-15h-39c-6.3 0-10.2 3.4-10.2 8.8v40.8h30.3V66.7zM398 82.1V71.3c0-12.4-8.1-19.5-25.6-19.5H318v14.4h43.7c4.4 0 6 1.4 6 4.8v.5h-34.9c-14.7 0-19.6 6.3-19.6 14.3v1.6c0 3.6 1.1 6.7 3.2 8.7 4.2 4.1 12.5 5.3 23.6 5.3h30.2c19.6-.1 27.8-4.7 27.8-19.3zm-30.4 0c0 2.8-1.1 4.7-4.6 4.7h-16.4c-2.8 0-4.5-.8-4.5-3s1-3.6 4.5-3.6h21zm-58.9 19.3v-15h-23.4V43.8h-30.4v57.6h53.8m-109.6 0h49v-15H208c-3.9 0-7.9-2.2-7.9-9.5v-1c0-6.5 3.3-9.1 7.6-9.1h40.4v-15h-50c-20.3 0-28.6 8.9-28.6 22.5v4.6c0 16 8.9 22.5 29.6 22.5zm-66.2 0h30.4V43.8h-17.8c-7.3 0-12.5 3.1-17.5 7.4-5.6 4.9-25.7 22.3-25.7 22.3V43.8H84.4c-10.1 0-15.2 3.5-20.9 7.9C59.7 54.8 0 101.4 0 101.4h36.2L71.9 72v29.4h29l32-29.2z" class="st0"/><path id="path14555" d="M685.4 0c-15.6 0-37.6 4.7-61.5 13.4-19.9 7.3-39.6 16.5-60.9 30 12.5-5.1 37-10.8 57.3-10.8 27.4 0 46.9 10.5 18.1 47.2C723.3 24.2 720.9 0 685.4 0" class="st0"/></svg>